# xmcd
#
# Track frame offsets: 
#        150
#        14597
#        31133
#        48694
#        63502
#        93451
#        109807
#        125831
#        142410
#        167070
#        184525
#        204073
#        219223
#        241957
#        257323
#
# Disc length: 3696 seconds
#
# Revision: 0
# Processed by: cddbd v1.5.2PL0 Copyright (c) Steve Scherf et al.
# Submitted via: ExactAudioCopy v1.3
#
DISCID=d40e6e0f
DTITLE=Chris Brown - Indigo
DYEAR=2019
DGENRE=R&B
TTITLE0=Indigo
TTITLE1=Back to Love
TTITLE2=Chris Brown;H.E.R. - Come Together ft. H.E.R.
TTITLE3=Chris Brown;Lil Jon - Temporary Lover ft. Lil Jon
TTITLE4=Chris Brown;Juvenile;Juicy - Emerald - Burgundy ft. Juvenile &
TTITLE4=Juicy
TTITLE5=Red
TTITLE6=Chris Brown;Tyga - All I Want ft. Tyga
TTITLE7=Chris Brown;Nicki Minaj;G-Eazy - Wobble Up ft. Nicki Minaj and G
TTITLE7=Eazy
TTITLE8=Chris Brown - Lil Wayne;Joyner Lucas - Need a Stack ft. Lil Way
TTITLE8=ne and Joyner Lucas
TTITLE9=Chris Brown;Gunna - Heat ft. Gunna
TTITLE10=Chris Brown;Drake - No Guidance ft. Drake
TTITLE11=Girl of My Dreams
TTITLE12=Natural Disaster - Aura
TTITLE13=Chris Brown;Justin Bieber;Ink - Don't Check on Me ft. Justin 
TTITLE13=Bieber and Ink
TTITLE14=Sorry Enough
EXTD=
EXTT0=
EXTT1=
EXTT2=
EXTT3=
EXTT4=
EXTT5=
EXTT6=
EXTT7=
EXTT8=
EXTT9=
EXTT10=
EXTT11=
EXTT12=
EXTT13=
EXTT14=
PLAYORDER=
